<!-- Generated by IcoMoon.io -->
<svg version="1.1" xmlns="http://www.w3.org/2000/svg" width="32" height="32" viewBox="0 0 32 32">
<title>admin_icon</title>
<path fill="#f8e9df" d="M13.331 24c0-5.438 4.075-9.919 9.331-10.575v-0.094c0.344-0.5 1.331-1.331 1.331-2.669s-1.331-2.669-1.331-3.331c0.006-5.331-2.712-7.331-6.662-7.331-3.781 0-6.669 2-6.669 7.331 0 0.669-1.331 2-1.331 3.331s0.95 2.213 1.331 2.669c0 0 0 1.331 0.669 3.331 0 0.669 1.331 1.331 2 2 0 0.669 0 1.331-0.669 2.669l-7.331 1.338c-2.669 0.662-4 5.331-4 9.331h16.962c-2.219-1.956-3.631-4.813-3.631-8zM24 16c-4.419 0-8 3.581-8 8s3.581 8 8 8c4.419 0 8-3.581 8-8s-3.581-8-8-8zM29.331 25.331h-4v4h-2.669v-4h-4v-2.669h4v-4h2.669v4h4v2.669z"></path>
</svg>
