<!-- Generated by IcoMoon.io -->
<svg version="1.1" xmlns="http://www.w3.org/2000/svg" width="33" height="32" viewBox="0 0 33 32">
<title>classes_icon</title>
<path d="M22.306 23.202c0.28-0.218 0.534-0.472 1.042-0.979l6.331-6.333c0.154-0.152 0.083-0.416-0.12-0.488-0.991-0.345-1.89-0.911-2.63-1.654-0.743-0.74-1.309-1.64-1.654-2.63-0.072-0.203-0.336-0.274-0.488-0.12l-6.334 6.331c-0.507 0.507-0.762 0.762-0.979 1.042-0.258 0.331-0.48 0.688-0.659 1.066-0.152 0.32-0.266 0.662-0.493 1.344l-0.294 0.88-0.467 1.4-0.437 1.312c-0.055 0.164-0.062 0.341-0.022 0.509s0.126 0.323 0.248 0.445c0.123 0.122 0.277 0.208 0.445 0.248s0.345 0.032 0.509-0.022l3.592-1.198c0.682-0.227 1.024-0.339 1.344-0.493 0.378-0.181 0.738-0.4 1.067-0.659zM31.661 13.907c0.33-0.319 0.594-0.701 0.775-1.123s0.277-0.876 0.281-1.336c0.004-0.459-0.083-0.915-0.258-1.34s-0.431-0.812-0.756-1.136c-0.325-0.325-0.711-0.582-1.136-0.756s-0.881-0.262-1.34-0.258c-0.459 0.004-0.914 0.099-1.336 0.28s-0.804 0.445-1.123 0.775l-0.203 0.205c-0.097 0.095-0.169 0.213-0.21 0.343s-0.050 0.267-0.026 0.401c0.032 0.171 0.088 0.424 0.192 0.723 0.208 0.6 0.602 1.387 1.342 2.128 0.598 0.603 1.326 1.062 2.128 1.342 0.301 0.104 0.552 0.16 0.723 0.192 0.134 0.024 0.272 0.014 0.401-0.027s0.247-0.113 0.343-0.21l0.203-0.203z"></path>
<path d="M2.55 1.875c-1.875 1.874-1.875 4.891-1.875 10.925v6.4c0 6.034 0 9.051 1.875 10.925 1.874 1.875 4.891 1.875 10.925 1.875h3.2c6.034 0 9.051 0 10.925-1.875 1.845-1.843 1.875-4.794 1.875-10.637l-4.509 4.509c-0.432 0.432-0.786 0.786-1.184 1.098-0.468 0.365-0.975 0.678-1.51 0.933-0.491 0.22-0.996 0.41-1.51 0.568l-3.699 1.234c-0.587 0.196-1.217 0.224-1.82 0.082s-1.153-0.449-1.591-0.887-0.745-0.989-0.887-1.591c-0.142-0.602-0.114-1.233 0.082-1.82l0.438-1.312 0.76-2.282 0.034-0.106c0.194-0.579 0.352-1.053 0.57-1.51 0.256-0.536 0.568-1.042 0.933-1.509 0.312-0.4 0.666-0.752 1.098-1.184l8.392-8.394c0.544-0.545 1.19-0.978 1.901-1.272s1.474-0.446 2.244-0.444c-0.242-1.648-0.71-2.821-1.616-3.725-1.874-1.875-4.891-1.875-10.925-1.875h-3.2c-6.034 0-9.051 0-10.925 1.875zM7.475 11.2c0-0.318 0.126-0.623 0.351-0.849s0.53-0.351 0.849-0.351h10.4c0.318 0 0.623 0.126 0.848 0.351s0.352 0.53 0.352 0.849-0.126 0.623-0.352 0.849c-0.225 0.225-0.53 0.351-0.848 0.351h-10.4c-0.318 0-0.623-0.126-0.849-0.351s-0.351-0.53-0.351-0.849zM7.475 17.6c0-0.318 0.126-0.623 0.351-0.849s0.53-0.351 0.849-0.351h4c0.318 0 0.623 0.126 0.849 0.351s0.351 0.53 0.351 0.849-0.126 0.623-0.351 0.849c-0.225 0.225-0.53 0.351-0.849 0.351h-4c-0.318 0-0.623-0.126-0.849-0.351s-0.351-0.53-0.351-0.849zM7.475 24c0-0.318 0.126-0.623 0.351-0.849s0.53-0.351 0.849-0.351h2.4c0.318 0 0.623 0.126 0.849 0.351s0.351 0.53 0.351 0.849c0 0.318-0.126 0.623-0.351 0.849s-0.53 0.351-0.849 0.351h-2.4c-0.318 0-0.623-0.126-0.849-0.351s-0.351-0.53-0.351-0.849z"></path>
</svg>
