<!-- Generated by IcoMoon.io -->
<svg version="1.1" xmlns="http://www.w3.org/2000/svg" width="32" height="32" viewBox="0 0 32 32">
<title>community_icon</title>
<path fill="#f8e9df" d="M16 12.8c1.697 0 3.325-0.674 4.526-1.874s1.874-2.828 1.874-4.526-0.674-3.325-1.874-4.526c-1.2-1.2-2.828-1.875-4.526-1.875s-3.325 0.674-4.526 1.875c-1.2 1.2-1.874 2.828-1.874 4.526s0.674 3.325 1.874 4.526c1.2 1.2 2.828 1.874 4.526 1.874zM5.6 17.6c1.061 0 2.078-0.421 2.828-1.172s1.172-1.768 1.172-2.828c0-1.061-0.421-2.078-1.172-2.828s-1.768-1.172-2.828-1.172c-1.061 0-2.078 0.421-2.828 1.172s-1.172 1.768-1.172 2.828c0 1.061 0.421 2.078 1.172 2.828s1.768 1.172 2.828 1.172zM30.4 13.6c0 1.061-0.421 2.078-1.172 2.828s-1.767 1.172-2.828 1.172c-1.061 0-2.078-0.421-2.828-1.172s-1.172-1.768-1.172-2.828c0-1.061 0.421-2.078 1.172-2.828s1.767-1.172 2.828-1.172c1.061 0 2.078 0.421 2.828 1.172s1.172 1.768 1.172 2.828zM16 14.4c2.122 0 4.157 0.843 5.657 2.343s2.343 3.535 2.343 5.657v9.6h-16v-9.6c0-2.122 0.843-4.157 2.343-5.657s3.535-2.343 5.657-2.343zM4.8 22.4c0-1.109 0.16-2.179 0.461-3.19l-0.272 0.022c-1.371 0.151-2.639 0.802-3.56 1.83s-1.43 2.359-1.429 3.738v7.2h4.8v-9.6zM32 32v-7.2c0-1.427-0.544-2.799-1.522-3.838s-2.315-1.666-3.739-1.752c0.299 1.011 0.461 2.082 0.461 3.19v9.6h4.8z"></path>
</svg>
