<!-- Generated by IcoMoon.io -->
<svg version="1.1" xmlns="http://www.w3.org/2000/svg" width="32" height="32" viewBox="0 0 32 32">
<title>edit_icon</title>
<path fill="#d24d24" d="M5.425 5.312c1.864-1.864 5.041-2.736 10.575-2.736s8.711 0.872 10.575 2.736 2.736 5.041 2.736 10.575c0 5.534-0.872 8.711-2.736 10.575s-5.041 2.736-10.575 2.736c-0.711 0-1.288 0.577-1.288 1.288s0.577 1.288 1.288 1.288c5.63 0 9.752-0.845 12.396-3.49s3.49-6.767 3.49-12.396c0-5.63-0.846-9.752-3.49-12.396s-6.767-3.49-12.396-3.49-9.752 0.845-12.396 3.49c-2.645 2.645-3.49 6.767-3.49 12.396 0 0.711 0.577 1.288 1.288 1.288s1.288-0.577 1.288-1.288c0-5.534 0.872-8.711 2.736-10.575zM14.899 9.475c1.876-0.938 4.746-1.652 7.069 0.671s1.609 5.193 0.671 7.069c-0.483 0.966-1.078 1.796-1.542 2.375-0.234 0.293-0.44 0.528-0.589 0.692-0.075 0.082-0.136 0.147-0.18 0.193l-0.053 0.054-0.016 0.016-0.007 0.007c-0 0-0.002 0.002-0.912-0.909l0.911 0.911-8.585 8.585c-1.249 1.249-2.851 2.323-4.773 2.655-0 0 0 0 0 0-0.846 0.146-1.854 0.255-2.813 0.183-0.925-0.069-2.030-0.323-2.826-1.118s-1.049-1.901-1.118-2.826c-0.072-0.959 0.037-1.967 0.183-2.813 0.331-1.922 1.406-3.524 2.655-4.773l8.585-8.585 0.796 0.796c-0.796-0.796-0.796-0.796-0.796-0.796l0.003-0.003 0.005-0.005 0.016-0.016 0.054-0.053c0.046-0.044 0.111-0.105 0.193-0.18 0.165-0.15 0.4-0.355 0.692-0.589 0.58-0.464 1.409-1.059 2.375-1.542zM17.518 19.644l-7.674 7.674c-1.013 1.013-2.158 1.725-3.389 1.938-0.746 0.129-1.521 0.203-2.183 0.153-0.696-0.052-1.049-0.224-1.196-0.371s-0.319-0.5-0.371-1.196c-0.050-0.662 0.024-1.438 0.153-2.183 0.212-1.231 0.924-2.375 1.938-3.389-0 0 0 0 0 0l7.674-7.674 5.048 5.048zM14.365 12.847c0.464-0.354 1.047-0.748 1.687-1.068 1.559-0.779 2.982-0.924 4.095 0.188s0.967 2.536 0.188 4.095c-0.32 0.639-0.714 1.223-1.068 1.687l-4.901-4.901z"></path>
</svg>
