<!-- Generated by IcoMoon.io -->
<svg version="1.1" xmlns="http://www.w3.org/2000/svg" width="32" height="32" viewBox="0 0 32 32">
<title>lock_icon</title>
<path fill="#fff" d="M23.467 23.467h-2.133v-2.133h2.133v2.133zM17.067 23.467h2.133v-2.133h-2.133v2.133zM27.733 23.467h-2.133v-2.133h2.133v2.133z"></path>
<path fill="#fff" d="M6.4 12.8h-3.2c-0.849 0-1.663 0.337-2.263 0.937s-0.937 1.414-0.937 2.263v12.8c0 0.849 0.337 1.663 0.937 2.263s1.414 0.937 2.263 0.937h21.333c0.849 0 1.663-0.337 2.263-0.937s0.937-1.414 0.937-2.263v-1.173c1.206-0.245 2.29-0.899 3.068-1.851s1.204-2.145 1.204-3.375-0.425-2.423-1.204-3.375c-0.779-0.953-1.863-1.607-3.068-1.851v-1.173c0-0.849-0.337-1.663-0.937-2.263s-1.414-0.937-2.263-0.937h-3.2v-5.333c0-0.981-0.193-1.951-0.568-2.857s-0.925-1.729-1.619-2.422c-0.693-0.693-1.516-1.243-2.422-1.619s-1.877-0.568-2.857-0.568c-0.981 0-1.951 0.193-2.857 0.568s-1.729 0.925-2.422 1.619c-0.693 0.693-1.243 1.516-1.619 2.422s-0.568 1.877-0.568 2.857v5.333zM8.533 7.467c0-1.415 0.562-2.771 1.562-3.771s2.357-1.562 3.771-1.562c1.414 0 2.771 0.562 3.771 1.562s1.562 2.357 1.562 3.771v5.333h-10.667v-5.333zM18.133 19.2h8.533c0.849 0 1.663 0.337 2.263 0.937s0.937 1.414 0.937 2.263-0.337 1.663-0.937 2.263c-0.6 0.6-1.414 0.937-2.263 0.937h-8.533c-0.849 0-1.663-0.337-2.263-0.937s-0.937-1.414-0.937-2.263c0-0.849 0.337-1.663 0.937-2.263s1.414-0.937 2.263-0.937z"></path>
</svg>
