<!-- Generated by IcoMoon.io -->
<svg version="1.1" xmlns="http://www.w3.org/2000/svg" width="30" height="32" viewBox="0 0 30 32">
<title>member_icon</title>
<path fill="#f8e9df" d="M14.933 13.013c1.584 0 3.104-0.629 4.224-1.75s1.75-2.64 1.75-4.224c0-1.584-0.629-3.104-1.75-4.224s-2.64-1.75-4.224-1.75c-1.584 0-3.104 0.629-4.224 1.75s-1.75 2.64-1.75 4.224c0 1.584 0.629 3.104 1.75 4.224s2.64 1.75 4.224 1.75zM5.227 17.493c0.99 0 1.94-0.393 2.64-1.093s1.093-1.65 1.093-2.64c0-0.99-0.393-1.94-1.093-2.64s-1.65-1.093-2.64-1.093c-0.99 0-1.94 0.393-2.64 1.093s-1.093 1.65-1.093 2.64c0 0.99 0.393 1.94 1.093 2.64s1.65 1.093 2.64 1.093zM28.373 13.76c0 0.99-0.393 1.94-1.094 2.64s-1.65 1.093-2.64 1.093c-0.99 0-1.94-0.393-2.64-1.093s-1.094-1.65-1.094-2.64 0.393-1.94 1.094-2.64c0.7-0.7 1.65-1.093 2.64-1.093s1.94 0.393 2.64 1.093c0.7 0.7 1.094 1.65 1.094 2.64zM14.933 14.507c1.98 0 3.879 0.787 5.28 2.187s2.187 3.299 2.187 5.28v8.96h-14.933v-8.96c0-1.98 0.787-3.879 2.187-5.28s3.299-2.187 5.28-2.187zM4.48 21.973c0-1.035 0.149-2.034 0.43-2.978l-0.254 0.021c-1.28 0.141-2.463 0.749-3.322 1.708s-1.334 2.201-1.334 3.489v6.72h4.48v-8.96zM29.867 30.933v-6.72c0-1.331-0.508-2.613-1.42-3.583s-2.161-1.555-3.49-1.635c0.279 0.944 0.43 1.943 0.43 2.978v8.96h4.48z"></path>
</svg>
