<!-- Generated by IcoMoon.io -->
<svg version="1.1" xmlns="http://www.w3.org/2000/svg" width="33" height="32" viewBox="0 0 33 32">
<title>note_icon</title>
<path d="M22.043 22.902c0.268-0.209 0.512-0.452 0.998-0.938l6.067-6.069c0.147-0.146 0.080-0.399-0.115-0.468-0.949-0.331-1.811-0.873-2.521-1.585-0.712-0.709-1.255-1.571-1.585-2.521-0.069-0.195-0.322-0.262-0.468-0.115l-6.071 6.067c-0.486 0.486-0.73 0.73-0.938 0.998-0.247 0.317-0.46 0.659-0.632 1.021-0.146 0.307-0.255 0.635-0.472 1.288l-0.282 0.843-0.448 1.342-0.419 1.257c-0.052 0.158-0.060 0.327-0.021 0.488s0.121 0.309 0.238 0.427c0.117 0.117 0.265 0.2 0.427 0.238s0.331 0.031 0.488-0.021l3.442-1.148c0.653-0.218 0.981-0.325 1.288-0.472 0.362-0.173 0.707-0.383 1.023-0.632zM31.008 13.994c0.317-0.306 0.569-0.672 0.743-1.076s0.265-0.84 0.269-1.28c0.004-0.44-0.080-0.877-0.247-1.284s-0.413-0.778-0.724-1.089c-0.311-0.311-0.681-0.558-1.089-0.725s-0.844-0.251-1.284-0.247c-0.44 0.004-0.875 0.095-1.28 0.269s-0.771 0.426-1.077 0.743l-0.195 0.196c-0.093 0.092-0.162 0.204-0.202 0.328s-0.048 0.256-0.025 0.385c0.031 0.164 0.084 0.406 0.184 0.693 0.199 0.575 0.577 1.329 1.286 2.039 0.573 0.578 1.271 1.018 2.039 1.287 0.288 0.1 0.529 0.153 0.693 0.184 0.128 0.023 0.26 0.014 0.385-0.026s0.237-0.109 0.329-0.201l0.195-0.195z"></path>
<path d="M3.11 2.464c-1.797 1.796-1.797 4.687-1.797 10.47v6.133c0 5.782 0 8.674 1.797 10.47 1.796 1.797 4.687 1.797 10.47 1.797h3.067c5.782 0 8.674 0 10.47-1.797 1.768-1.766 1.797-4.594 1.797-10.194l-4.321 4.321c-0.414 0.414-0.753 0.753-1.135 1.052-0.449 0.35-0.934 0.649-1.447 0.894-0.471 0.211-0.954 0.393-1.447 0.544l-3.545 1.182c-0.563 0.188-1.167 0.215-1.744 0.079s-1.105-0.431-1.525-0.85-0.714-0.947-0.85-1.525c-0.136-0.577-0.109-1.181 0.079-1.744l0.42-1.257 0.728-2.187 0.032-0.101c0.186-0.555 0.337-1.009 0.546-1.447 0.245-0.514 0.544-0.998 0.894-1.446 0.299-0.383 0.638-0.721 1.052-1.135l8.042-8.044c0.521-0.523 1.14-0.937 1.822-1.219s1.413-0.427 2.151-0.426c-0.232-1.579-0.681-2.703-1.549-3.57-1.796-1.797-4.687-1.797-10.47-1.797h-3.067c-5.782 0-8.674 0-10.47 1.797zM7.83 11.4c0-0.305 0.121-0.598 0.337-0.813s0.508-0.337 0.813-0.337h9.967c0.305 0 0.597 0.121 0.813 0.337s0.337 0.508 0.337 0.813-0.121 0.598-0.337 0.813c-0.216 0.216-0.508 0.337-0.813 0.337h-9.967c-0.305 0-0.598-0.121-0.813-0.337s-0.337-0.508-0.337-0.813zM7.83 17.533c0-0.305 0.121-0.597 0.337-0.813s0.508-0.337 0.813-0.337h3.833c0.305 0 0.598 0.121 0.813 0.337s0.337 0.508 0.337 0.813-0.121 0.597-0.337 0.813c-0.216 0.216-0.508 0.337-0.813 0.337h-3.833c-0.305 0-0.598-0.121-0.813-0.337s-0.337-0.508-0.337-0.813zM7.83 23.667c0-0.305 0.121-0.597 0.337-0.813s0.508-0.337 0.813-0.337h2.3c0.305 0 0.598 0.121 0.813 0.337s0.337 0.508 0.337 0.813c0 0.305-0.121 0.597-0.337 0.813s-0.508 0.337-0.813 0.337h-2.3c-0.305 0-0.598-0.121-0.813-0.337s-0.337-0.508-0.337-0.813z"></path>
</svg>
