<!-- Generated by IcoMoon.io -->
<svg version="1.1" xmlns="http://www.w3.org/2000/svg" width="32" height="32" viewBox="0 0 32 32">
<title>search_icon</title>
<path fill="#655d5d" d="M30.621 32l-12.231-12.23c-0.977 0.832-2.1 1.476-3.369 1.932s-2.546 0.684-3.828 0.684c-3.128 0-5.775-1.083-7.942-3.248-2.167-2.167-3.25-4.813-3.25-7.939s1.082-5.774 3.246-7.943c2.165-2.17 4.811-3.256 7.938-3.256 3.128 0 5.776 1.083 7.946 3.25s3.254 4.814 3.254 7.943c0 1.357-0.24 2.67-0.721 3.939-0.482 1.269-1.113 2.355-1.895 3.258l12.231 12.228-1.381 1.383h0.002zM11.192 20.43c2.591 0 4.78-0.892 6.565-2.676 1.784-1.784 2.676-3.972 2.676-6.564 0-2.591-0.892-4.778-2.676-6.562s-3.972-2.676-6.563-2.676c-2.591 0-4.78 0.892-6.565 2.676-1.784 1.784-2.676 3.971-2.676 6.562s0.892 4.778 2.676 6.562c1.784 1.784 3.972 2.678 6.563 2.678z"></path>
</svg>
