<svg aria-hidden="true" style="position: absolute; width: 0; height: 0; overflow: hidden;" version="1.1" xmlns="http://www.w3.org/2000/svg" xmlns:xlink="http://www.w3.org/1999/xlink">
<defs>
<symbol id="icon-admin_icon" viewBox="0 0 32 32">
<path d="M13.331 24c0-5.438 4.075-9.919 9.331-10.575v-0.094c0.344-0.5 1.331-1.331 1.331-2.669s-1.331-2.669-1.331-3.331c0.006-5.331-2.712-7.331-6.662-7.331-3.781 0-6.669 2-6.669 7.331 0 0.669-1.331 2-1.331 3.331s0.95 2.213 1.331 2.669c0 0 0 1.331 0.669 3.331 0 0.669 1.331 1.331 2 2 0 0.669 0 1.331-0.669 2.669l-7.331 1.338c-2.669 0.662-4 5.331-4 9.331h16.962c-2.219-1.956-3.631-4.813-3.631-8zM24 16c-4.419 0-8 3.581-8 8s3.581 8 8 8c4.419 0 8-3.581 8-8s-3.581-8-8-8zM29.331 25.331h-4v4h-2.669v-4h-4v-2.669h4v-4h2.669v4h4v2.669z"></path>
</symbol>
<symbol id="icon-classes_icon" viewBox="0 0 33 32">
<path d="M22.306 23.202c0.28-0.218 0.534-0.472 1.042-0.979l6.331-6.333c0.154-0.152 0.083-0.416-0.12-0.488-0.991-0.345-1.89-0.911-2.63-1.654-0.743-0.74-1.309-1.64-1.654-2.63-0.072-0.203-0.336-0.274-0.488-0.12l-6.334 6.331c-0.507 0.507-0.762 0.762-0.979 1.042-0.258 0.331-0.48 0.688-0.659 1.066-0.152 0.32-0.266 0.662-0.493 1.344l-0.294 0.88-0.467 1.4-0.437 1.312c-0.055 0.164-0.062 0.341-0.022 0.509s0.126 0.323 0.248 0.445c0.123 0.122 0.277 0.208 0.445 0.248s0.345 0.032 0.509-0.022l3.592-1.198c0.682-0.227 1.024-0.339 1.344-0.493 0.378-0.181 0.738-0.4 1.067-0.659zM31.661 13.907c0.33-0.319 0.594-0.701 0.775-1.123s0.277-0.876 0.281-1.336c0.004-0.459-0.083-0.915-0.258-1.34s-0.431-0.812-0.756-1.136c-0.325-0.325-0.711-0.582-1.136-0.756s-0.881-0.262-1.34-0.258c-0.459 0.004-0.914 0.099-1.336 0.28s-0.804 0.445-1.123 0.775l-0.203 0.205c-0.097 0.095-0.169 0.213-0.21 0.343s-0.050 0.267-0.026 0.401c0.032 0.171 0.088 0.424 0.192 0.723 0.208 0.6 0.602 1.387 1.342 2.128 0.598 0.603 1.326 1.062 2.128 1.342 0.301 0.104 0.552 0.16 0.723 0.192 0.134 0.024 0.272 0.014 0.401-0.027s0.247-0.113 0.343-0.21l0.203-0.203z"></path>
<path d="M2.55 1.875c-1.875 1.874-1.875 4.891-1.875 10.925v6.4c0 6.034 0 9.051 1.875 10.925 1.874 1.875 4.891 1.875 10.925 1.875h3.2c6.034 0 9.051 0 10.925-1.875 1.845-1.843 1.875-4.794 1.875-10.637l-4.509 4.509c-0.432 0.432-0.786 0.786-1.184 1.098-0.468 0.365-0.975 0.678-1.51 0.933-0.491 0.22-0.996 0.41-1.51 0.568l-3.699 1.234c-0.587 0.196-1.217 0.224-1.82 0.082s-1.153-0.449-1.591-0.887-0.745-0.989-0.887-1.591c-0.142-0.602-0.114-1.233 0.082-1.82l0.438-1.312 0.76-2.282 0.034-0.106c0.194-0.579 0.352-1.053 0.57-1.51 0.256-0.536 0.568-1.042 0.933-1.509 0.312-0.4 0.666-0.752 1.098-1.184l8.392-8.394c0.544-0.545 1.19-0.978 1.901-1.272s1.474-0.446 2.244-0.444c-0.242-1.648-0.71-2.821-1.616-3.725-1.874-1.875-4.891-1.875-10.925-1.875h-3.2c-6.034 0-9.051 0-10.925 1.875zM7.475 11.2c0-0.318 0.126-0.623 0.351-0.849s0.53-0.351 0.849-0.351h10.4c0.318 0 0.623 0.126 0.848 0.351s0.352 0.53 0.352 0.849-0.126 0.623-0.352 0.849c-0.225 0.225-0.53 0.351-0.848 0.351h-10.4c-0.318 0-0.623-0.126-0.849-0.351s-0.351-0.53-0.351-0.849zM7.475 17.6c0-0.318 0.126-0.623 0.351-0.849s0.53-0.351 0.849-0.351h4c0.318 0 0.623 0.126 0.849 0.351s0.351 0.53 0.351 0.849-0.126 0.623-0.351 0.849c-0.225 0.225-0.53 0.351-0.849 0.351h-4c-0.318 0-0.623-0.126-0.849-0.351s-0.351-0.53-0.351-0.849zM7.475 24c0-0.318 0.126-0.623 0.351-0.849s0.53-0.351 0.849-0.351h2.4c0.318 0 0.623 0.126 0.849 0.351s0.351 0.53 0.351 0.849c0 0.318-0.126 0.623-0.351 0.849s-0.53 0.351-0.849 0.351h-2.4c-0.318 0-0.623-0.126-0.849-0.351s-0.351-0.53-0.351-0.849z"></path>
</symbol>
<symbol id="icon-community_icon" viewBox="0 0 32 32">
<path d="M16 12.8c1.697 0 3.325-0.674 4.526-1.874s1.874-2.828 1.874-4.526-0.674-3.325-1.874-4.526c-1.2-1.2-2.828-1.875-4.526-1.875s-3.325 0.674-4.526 1.875c-1.2 1.2-1.874 2.828-1.874 4.526s0.674 3.325 1.874 4.526c1.2 1.2 2.828 1.874 4.526 1.874zM5.6 17.6c1.061 0 2.078-0.421 2.828-1.172s1.172-1.768 1.172-2.828c0-1.061-0.421-2.078-1.172-2.828s-1.768-1.172-2.828-1.172c-1.061 0-2.078 0.421-2.828 1.172s-1.172 1.768-1.172 2.828c0 1.061 0.421 2.078 1.172 2.828s1.768 1.172 2.828 1.172zM30.4 13.6c0 1.061-0.421 2.078-1.172 2.828s-1.767 1.172-2.828 1.172c-1.061 0-2.078-0.421-2.828-1.172s-1.172-1.768-1.172-2.828c0-1.061 0.421-2.078 1.172-2.828s1.767-1.172 2.828-1.172c1.061 0 2.078 0.421 2.828 1.172s1.172 1.768 1.172 2.828zM16 14.4c2.122 0 4.157 0.843 5.657 2.343s2.343 3.535 2.343 5.657v9.6h-16v-9.6c0-2.122 0.843-4.157 2.343-5.657s3.535-2.343 5.657-2.343zM4.8 22.4c0-1.109 0.16-2.179 0.461-3.19l-0.272 0.022c-1.371 0.151-2.639 0.802-3.56 1.83s-1.43 2.359-1.429 3.738v7.2h4.8v-9.6zM32 32v-7.2c0-1.427-0.544-2.799-1.522-3.838s-2.315-1.666-3.739-1.752c0.299 1.011 0.461 2.082 0.461 3.19v9.6h4.8z"></path>
</symbol>
<symbol id="icon-dashbord_icon" viewBox="0 0 32 32">
<path d="M17.778 10.667v-10.667h14.222v10.667h-14.222zM0 17.778v-17.778h14.222v17.778h-14.222zM17.778 32v-17.778h14.222v17.778h-14.222zM0 32v-10.667h14.222v10.667h-14.222zM3.556 14.222h7.111v-10.667h-7.111v10.667zM21.333 28.444h7.111v-10.667h-7.111v10.667zM21.333 7.111h7.111v-3.556h-7.111v3.556zM3.556 28.444h7.111v-3.555h-7.111v3.555z"></path>
</symbol>
<symbol id="icon-document_icon" viewBox="0 0 41 32">
<path d="M4.251 31.273c-1.004 0-1.841-0.336-2.513-1.008-0.673-0.673-1.010-1.512-1.010-2.516v-23.498c0-1.004 0.337-1.841 1.010-2.513 0.672-0.673 1.51-1.010 2.513-1.010h10.868l4.364 4.364h16.994c1.004 0 1.841 0.337 2.513 1.010 0.673 0.672 1.010 1.51 1.010 2.513v19.135c0 1.004-0.336 1.841-1.008 2.513-0.673 0.673-1.512 1.010-2.516 1.010h-32.225z"></path>
</symbol>
<symbol id="icon-edit_icon" viewBox="0 0 32 32">
<path d="M5.425 5.312c1.864-1.864 5.041-2.736 10.575-2.736s8.711 0.872 10.575 2.736 2.736 5.041 2.736 10.575c0 5.534-0.872 8.711-2.736 10.575s-5.041 2.736-10.575 2.736c-0.711 0-1.288 0.577-1.288 1.288s0.577 1.288 1.288 1.288c5.63 0 9.752-0.845 12.396-3.49s3.49-6.767 3.49-12.396c0-5.63-0.846-9.752-3.49-12.396s-6.767-3.49-12.396-3.49-9.752 0.845-12.396 3.49c-2.645 2.645-3.49 6.767-3.49 12.396 0 0.711 0.577 1.288 1.288 1.288s1.288-0.577 1.288-1.288c0-5.534 0.872-8.711 2.736-10.575zM14.899 9.475c1.876-0.938 4.746-1.652 7.069 0.671s1.609 5.193 0.671 7.069c-0.483 0.966-1.078 1.796-1.542 2.375-0.234 0.293-0.44 0.528-0.589 0.692-0.075 0.082-0.136 0.147-0.18 0.193l-0.053 0.054-0.016 0.016-0.007 0.007c-0 0-0.002 0.002-0.912-0.909l0.911 0.911-8.585 8.585c-1.249 1.249-2.851 2.323-4.773 2.655-0 0 0 0 0 0-0.846 0.146-1.854 0.255-2.813 0.183-0.925-0.069-2.030-0.323-2.826-1.118s-1.049-1.901-1.118-2.826c-0.072-0.959 0.037-1.967 0.183-2.813 0.331-1.922 1.406-3.524 2.655-4.773l8.585-8.585 0.796 0.796c-0.796-0.796-0.796-0.796-0.796-0.796l0.003-0.003 0.005-0.005 0.016-0.016 0.054-0.053c0.046-0.044 0.111-0.105 0.193-0.18 0.165-0.15 0.4-0.355 0.692-0.589 0.58-0.464 1.409-1.059 2.375-1.542zM17.518 19.644l-7.674 7.674c-1.013 1.013-2.158 1.725-3.389 1.938-0.746 0.129-1.521 0.203-2.183 0.153-0.696-0.052-1.049-0.224-1.196-0.371s-0.319-0.5-0.371-1.196c-0.050-0.662 0.024-1.438 0.153-2.183 0.212-1.231 0.924-2.375 1.938-3.389-0 0 0 0 0 0l7.674-7.674 5.048 5.048zM14.365 12.847c0.464-0.354 1.047-0.748 1.687-1.068 1.559-0.779 2.982-0.924 4.095 0.188s0.967 2.536 0.188 4.095c-0.32 0.639-0.714 1.223-1.068 1.687l-4.901-4.901z"></path>
</symbol>
<symbol id="icon-lock_icon" viewBox="0 0 32 32">
<path d="M23.467 23.467h-2.133v-2.133h2.133v2.133zM17.067 23.467h2.133v-2.133h-2.133v2.133zM27.733 23.467h-2.133v-2.133h2.133v2.133z"></path>
<path d="M6.4 12.8h-3.2c-0.849 0-1.663 0.337-2.263 0.937s-0.937 1.414-0.937 2.263v12.8c0 0.849 0.337 1.663 0.937 2.263s1.414 0.937 2.263 0.937h21.333c0.849 0 1.663-0.337 2.263-0.937s0.937-1.414 0.937-2.263v-1.173c1.206-0.245 2.29-0.899 3.068-1.851s1.204-2.145 1.204-3.375-0.425-2.423-1.204-3.375c-0.779-0.953-1.863-1.607-3.068-1.851v-1.173c0-0.849-0.337-1.663-0.937-2.263s-1.414-0.937-2.263-0.937h-3.2v-5.333c0-0.981-0.193-1.951-0.568-2.857s-0.925-1.729-1.619-2.422c-0.693-0.693-1.516-1.243-2.422-1.619s-1.877-0.568-2.857-0.568c-0.981 0-1.951 0.193-2.857 0.568s-1.729 0.925-2.422 1.619c-0.693 0.693-1.243 1.516-1.619 2.422s-0.568 1.877-0.568 2.857v5.333zM8.533 7.467c0-1.415 0.562-2.771 1.562-3.771s2.357-1.562 3.771-1.562c1.414 0 2.771 0.562 3.771 1.562s1.562 2.357 1.562 3.771v5.333h-10.667v-5.333zM18.133 19.2h8.533c0.849 0 1.663 0.337 2.263 0.937s0.937 1.414 0.937 2.263-0.337 1.663-0.937 2.263c-0.6 0.6-1.414 0.937-2.263 0.937h-8.533c-0.849 0-1.663-0.337-2.263-0.937s-0.937-1.414-0.937-2.263c0-0.849 0.337-1.663 0.937-2.263s1.414-0.937 2.263-0.937z"></path>
</symbol>
<symbol id="icon-logout_icon" viewBox="0 0 30 32">
<path d="M15.059 31.059c-8.317 0-15.059-6.742-15.059-15.059s6.742-15.059 15.059-15.059c8.317 0 15.059 6.742 15.059 15.059s-6.742 15.059-15.059 15.059zM7.529 14.494v-4.518l-7.529 6.024 7.529 6.024v-4.518h12.047v-3.012h-12.047z"></path>
</symbol>
<symbol id="icon-member_icon" viewBox="0 0 30 32">
<path d="M14.933 13.013c1.584 0 3.104-0.629 4.224-1.75s1.75-2.64 1.75-4.224c0-1.584-0.629-3.104-1.75-4.224s-2.64-1.75-4.224-1.75c-1.584 0-3.104 0.629-4.224 1.75s-1.75 2.64-1.75 4.224c0 1.584 0.629 3.104 1.75 4.224s2.64 1.75 4.224 1.75zM5.227 17.493c0.99 0 1.94-0.393 2.64-1.093s1.093-1.65 1.093-2.64c0-0.99-0.393-1.94-1.093-2.64s-1.65-1.093-2.64-1.093c-0.99 0-1.94 0.393-2.64 1.093s-1.093 1.65-1.093 2.64c0 0.99 0.393 1.94 1.093 2.64s1.65 1.093 2.64 1.093zM28.373 13.76c0 0.99-0.393 1.94-1.094 2.64s-1.65 1.093-2.64 1.093c-0.99 0-1.94-0.393-2.64-1.093s-1.094-1.65-1.094-2.64 0.393-1.94 1.094-2.64c0.7-0.7 1.65-1.093 2.64-1.093s1.94 0.393 2.64 1.093c0.7 0.7 1.094 1.65 1.094 2.64zM14.933 14.507c1.98 0 3.879 0.787 5.28 2.187s2.187 3.299 2.187 5.28v8.96h-14.933v-8.96c0-1.98 0.787-3.879 2.187-5.28s3.299-2.187 5.28-2.187zM4.48 21.973c0-1.035 0.149-2.034 0.43-2.978l-0.254 0.021c-1.28 0.141-2.463 0.749-3.322 1.708s-1.334 2.201-1.334 3.489v6.72h4.48v-8.96zM29.867 30.933v-6.72c0-1.331-0.508-2.613-1.42-3.583s-2.161-1.555-3.49-1.635c0.279 0.944 0.43 1.943 0.43 2.978v8.96h4.48z"></path>
</symbol>
<symbol id="icon-note_icon" viewBox="0 0 33 32">
<path d="M22.043 22.902c0.268-0.209 0.512-0.452 0.998-0.938l6.067-6.069c0.147-0.146 0.080-0.399-0.115-0.468-0.949-0.331-1.811-0.873-2.521-1.585-0.712-0.709-1.255-1.571-1.585-2.521-0.069-0.195-0.322-0.262-0.468-0.115l-6.071 6.067c-0.486 0.486-0.73 0.73-0.938 0.998-0.247 0.317-0.46 0.659-0.632 1.021-0.146 0.307-0.255 0.635-0.472 1.288l-0.282 0.843-0.448 1.342-0.419 1.257c-0.052 0.158-0.060 0.327-0.021 0.488s0.121 0.309 0.238 0.427c0.117 0.117 0.265 0.2 0.427 0.238s0.331 0.031 0.488-0.021l3.442-1.148c0.653-0.218 0.981-0.325 1.288-0.472 0.362-0.173 0.707-0.383 1.023-0.632zM31.008 13.994c0.317-0.306 0.569-0.672 0.743-1.076s0.265-0.84 0.269-1.28c0.004-0.44-0.080-0.877-0.247-1.284s-0.413-0.778-0.724-1.089c-0.311-0.311-0.681-0.558-1.089-0.725s-0.844-0.251-1.284-0.247c-0.44 0.004-0.875 0.095-1.28 0.269s-0.771 0.426-1.077 0.743l-0.195 0.196c-0.093 0.092-0.162 0.204-0.202 0.328s-0.048 0.256-0.025 0.385c0.031 0.164 0.084 0.406 0.184 0.693 0.199 0.575 0.577 1.329 1.286 2.039 0.573 0.578 1.271 1.018 2.039 1.287 0.288 0.1 0.529 0.153 0.693 0.184 0.128 0.023 0.26 0.014 0.385-0.026s0.237-0.109 0.329-0.201l0.195-0.195z"></path>
<path d="M3.11 2.464c-1.797 1.796-1.797 4.687-1.797 10.47v6.133c0 5.782 0 8.674 1.797 10.47 1.796 1.797 4.687 1.797 10.47 1.797h3.067c5.782 0 8.674 0 10.47-1.797 1.768-1.766 1.797-4.594 1.797-10.194l-4.321 4.321c-0.414 0.414-0.753 0.753-1.135 1.052-0.449 0.35-0.934 0.649-1.447 0.894-0.471 0.211-0.954 0.393-1.447 0.544l-3.545 1.182c-0.563 0.188-1.167 0.215-1.744 0.079s-1.105-0.431-1.525-0.85-0.714-0.947-0.85-1.525c-0.136-0.577-0.109-1.181 0.079-1.744l0.42-1.257 0.728-2.187 0.032-0.101c0.186-0.555 0.337-1.009 0.546-1.447 0.245-0.514 0.544-0.998 0.894-1.446 0.299-0.383 0.638-0.721 1.052-1.135l8.042-8.044c0.521-0.523 1.14-0.937 1.822-1.219s1.413-0.427 2.151-0.426c-0.232-1.579-0.681-2.703-1.549-3.57-1.796-1.797-4.687-1.797-10.47-1.797h-3.067c-5.782 0-8.674 0-10.47 1.797zM7.83 11.4c0-0.305 0.121-0.598 0.337-0.813s0.508-0.337 0.813-0.337h9.967c0.305 0 0.597 0.121 0.813 0.337s0.337 0.508 0.337 0.813-0.121 0.598-0.337 0.813c-0.216 0.216-0.508 0.337-0.813 0.337h-9.967c-0.305 0-0.598-0.121-0.813-0.337s-0.337-0.508-0.337-0.813zM7.83 17.533c0-0.305 0.121-0.597 0.337-0.813s0.508-0.337 0.813-0.337h3.833c0.305 0 0.598 0.121 0.813 0.337s0.337 0.508 0.337 0.813-0.121 0.597-0.337 0.813c-0.216 0.216-0.508 0.337-0.813 0.337h-3.833c-0.305 0-0.598-0.121-0.813-0.337s-0.337-0.508-0.337-0.813zM7.83 23.667c0-0.305 0.121-0.597 0.337-0.813s0.508-0.337 0.813-0.337h2.3c0.305 0 0.598 0.121 0.813 0.337s0.337 0.508 0.337 0.813c0 0.305-0.121 0.597-0.337 0.813s-0.508 0.337-0.813 0.337h-2.3c-0.305 0-0.598-0.121-0.813-0.337s-0.337-0.508-0.337-0.813z"></path>
</symbol>
<symbol id="icon-search_icon" viewBox="0 0 32 32">
<path d="M30.621 32l-12.231-12.23c-0.977 0.832-2.1 1.476-3.369 1.932s-2.546 0.684-3.828 0.684c-3.128 0-5.775-1.083-7.942-3.248-2.167-2.167-3.25-4.813-3.25-7.939s1.082-5.774 3.246-7.943c2.165-2.17 4.811-3.256 7.938-3.256 3.128 0 5.776 1.083 7.946 3.25s3.254 4.814 3.254 7.943c0 1.357-0.24 2.67-0.721 3.939-0.482 1.269-1.113 2.355-1.895 3.258l12.231 12.228-1.381 1.383h0.002zM11.192 20.43c2.591 0 4.78-0.892 6.565-2.676 1.784-1.784 2.676-3.972 2.676-6.564 0-2.591-0.892-4.778-2.676-6.562s-3.972-2.676-6.563-2.676c-2.591 0-4.78 0.892-6.565 2.676-1.784 1.784-2.676 3.971-2.676 6.562s0.892 4.778 2.676 6.562c1.784 1.784 3.972 2.678 6.563 2.678z"></path>
</symbol>
</defs>
</svg>
